HIERARCHY
ROOT Hips
{
    OFFSET 10.801176071166992 89.52653503417969 -18.139556884765625
    CHANNELS 6 Xposition Yposition Zposition Zrotation Xrotation Yrotation
    JOINT RightUpLeg
    {
        OFFSET -10.801176071166992 0.0 0.0
        CHANNELS 3 Zrotation Xrotation Yrotation
        JOINT RightLeg
        {
            OFFSET 0.0 -44.177642822265625 0.0
            CHANNELS 3 Zrotation Xrotation Yrotation
            JOINT RightFoot
            {
                OFFSET 0.0 -45.34889221191406 0.0
                CHANNELS 3 Zrotation Xrotation Yrotation
                End Site
                {
                    OFFSET 0.0 0.0 18.139556884765625
                }
            }
        }
    }
    JOINT LeftUpLeg
    {
        OFFSET 10.801176071166992 0.0 0.0
        CHANNELS 3 Zrotation Xrotation Yrotation
        JOINT LeftLeg
        {
            OFFSET 0.0 -44.177642822265625 0.0
            CHANNELS 3 Zrotation Xrotation Yrotation
            JOINT LeftFoot
            {
                OFFSET 0.0 -45.34889221191406 0.0
                CHANNELS 3 Zrotation Xrotation Yrotation
                End Site
                {
                    OFFSET 0.0 0.0 18.139556884765625
                }
            }
        }
    }
    JOINT Spine
    {
        OFFSET 0.0 23.492948532104492 0.0
        CHANNELS 3 Zrotation Xrotation Yrotation
        JOINT Spine3
        {
            OFFSET 0.0 24.343151092529297 0.0
            CHANNELS 3 Zrotation Xrotation Yrotation
            JOINT Neck
            {
                OFFSET 0.0 10.021479606628418 0.0
                CHANNELS 3 Zrotation Xrotation Yrotation
                End Site
                {
                    OFFSET 0.0 4.008591651916504 0.0
                }
            }
            JOINT LeftArm
            {
                OFFSET 11.650632858276367 0.0 0.0
                CHANNELS 3 Zrotation Xrotation Yrotation
                JOINT LeftForeArm
                {
                    OFFSET 23.972042083740234 0.0 0.0
                    CHANNELS 3 Zrotation Xrotation Yrotation
                    JOINT LeftHand
                    {
                        OFFSET 18.826271057128906 0.0 0.0
                        CHANNELS 3 Zrotation Xrotation Yrotation
                        End Site
                        {
                            OFFSET 7.530508995056152 0.0 0.0
                        }
                    }
                }
            }
            JOINT RightArm
            {
                OFFSET -11.650632858276367 0.0 0.0
                CHANNELS 3 Zrotation Xrotation Yrotation
                JOINT RightForeArm
                {
                    OFFSET -23.972042083740234 0.0 0.0
                    CHANNELS 3 Zrotation Xrotation Yrotation
                    JOINT RightHand
                    {
                        OFFSET -18.826271057128906 0.0 0.0
                        CHANNELS 3 Zrotation Xrotation Yrotation
                        End Site
                        {
                            OFFSET -7.530508995056152 0.0 0.0
                        }
                    }
                }
            }
        }
    }
}
MOTION
Frames: 9
Frame Time: 0.03333333333333333
0.00046529085375368595 89.58930206298828 -0.001130607444792986 -6.287151791485453 0.7100911447932643 -46.32538993366038 -4.579021918558056 9.686932547668654 0.6699365194358478 2.163898679478831 11.411661464903048 0.3501806426072953 2.9817700138720465e-16 -6.514175676687796e-33 -2.5034444074800725e-15 5.854521089320708 15.186332152745337 -1.71040238341626 -4.511552097722658 6.9319443754434555 -0.2140530000311252 1.1927080055488188e-15 2.9817700138720468e-15 -1.6896696745274934e-15 -0.6463289128656015 4.164757593361538 0.001656979713137127 1.372381635592386e-07 2.921223684100813e-08 -31.56626402421823 -14.642026428359697 10.893767233586237 -141.67991950434052 -147.33088594562915 -50.81167066859362 -52.331872437564314 -8.827437397651559e-07 -1.026940490062886e-06 73.43021698701058 9.541664044390553e-15 -3.1805546814635176e-15 2.648343778830095e-31 -113.77988443605018 -12.007386415010819 159.13083088265364 9.811561979296939e-07 2.6888273722080607e-06 -90.15532479860437 -1.7655625192200634e-31 -6.361109362927033e-15 -3.1805546814635164e-15
0.0003970657417085022 89.58929443359375 -0.0010976531775668263 -6.350797531892996 0.8107159562847747 -47.81014683988373 -4.931954977855497 9.26781824326888 0.6994473789173042 2.2047958665529044 11.445487945389164 0.41603180935862466 -2.1120870931593667e-16 5.783502978461299e-33 -3.137847038035662e-15 5.755797921974027 15.424014029046356 -1.7058845362921027 -4.966436381090657 6.373585373387872 -0.13382730028726395 3.975693351829396e-16 -1.9878466759146977e-16 3.876301018033661e-15 -0.6638563462729788 3.852241884981812 0.0035736891666363303 9.525347291580549e-08 4.5239567621819144e-07 -34.43892283908742 -15.137566368826514 10.495074431075482 -138.41599559429633 -146.04958765909763 -52.86429580920717 -53.13233384666451 3.1245040706274537e-06 -2.6950842515720716e-06 73.188175738711 0.0 0.0 0.0 -113.37978162869456 -15.057103215558968 157.6235953309683 -2.2312956429224424e-06 -2.0208755711687256e-06 -87.75638138341328 3.1805546814635168e-15 -6.3611093629270335e-15 1.7655625192200634e-31
0.000445450481493026 89.58930969238281 -0.001076034503057599 -6.45658031851587 0.5925982559963068 -46.785978016513305 -4.968146703625017 9.312323595752794 0.7832282072951822 2.4734306572663693 11.70285035347893 0.46954977349586835 2.0126947593636317e-15 4.8880563886610154e-32 2.782985346280577e-15 5.909039227401708 15.721411456985416 -1.6552268091600544 -5.069123593642352 6.002838519451517 -0.08395681451810444 7.951386703658791e-16 -3.1805546814635164e-15 -9.939233379573488e-16 -0.7007177843283823 4.141981028310301 0.03947696104899331 -1.2258532367512056e-07 -1.1086337032304934e-07 -34.72771768792708 -14.661853251071934 10.65833938718894 -138.75711713208304 -142.77199238045088 -52.703224520138455 -50.217815916971375 3.987587983822703e-06 -4.313439626150133e-07 72.84195553003244 0.0 0.0 6.3611093629270335e-15 -112.23520641397448 -14.38925439740582 157.2873089882925 9.636880059909732e-06 -4.16952942273629e-06 -86.67029042373453 0.0 -6.559894030518505e-15 0.0
0.0005125097231939435 89.58937072753906 -0.001038304646499455 -6.504981824449225 0.30075274304941285 -44.59033146842506 -4.85652809955611 9.670581612515289 0.7904950771996067 2.931209456862458 11.661674181621612 0.3472961276269112 -4.969616689786745e-16 -4.202693984959868e-33 9.690752545084152e-16 6.261157632123925 15.851970599338326 -1.7730368673966839 -4.957922569744449 5.750507908924708 -0.12758436185021488 3.9756933518293984e-16 3.1805546814635176e-15 -6.2617170291313e-15 -0.9472240731109068 4.6793646501831105 0.06270357555049133 3.0340069016241544e-07 3.4685211239897994e-07 -34.5028938168949 -14.179266962894841 11.863000668321577 -139.92047470500358 -140.23645752317873 -52.31459153637147 -47.92471927253896 -3.9671618768729726e-06 -1.5661080086215824e-06 73.57127660070879 3.531125038440127e-31 -3.180554681463516e-15 1.2722218725854064e-14 -111.05033707599509 -12.667952276339445 157.52217406524787 -3.918367841343884e-06 -2.3349125343612496e-06 -86.05226658780958 -3.1805546814635164e-15 6.361109362927033e-15 1.7655625192200634e-31
0.0006030490039847791 89.58940124511719 -0.0010040384950116277 -6.612574270326551 0.10123694380956702 -43.22216995670906 -4.70817469553807 10.027446028436268 0.6959622537024002 3.2110968954385477 11.574264489862502 0.1478789159311648 -4.969616689786745e-16 -2.4848083448933688e-17 -8.460772414361933e-15 6.544927629212268 15.94501005515435 -2.018085726617597 -5.0613802600188045 5.662969708943917 -0.19515133233647247 7.951386703658791e-16 2.0000512913039782e-32 2.8823776800763118e-15 -0.847785652345862 4.574394042439432 0.008809778109324009 1.7648199375710778e-07 2.6352545946058753e-07 -33.69004816424673 -14.120210933388528 12.805275445234798 -141.39191353514633 -137.3211248521112 -50.60093332632872 -44.43823472494182 2.1482014849656823e-06 8.102039650111156e-07 75.53158537359987 0.0 0.0 0.0 -109.89379498042966 -10.309135687545918 158.42656504664845 7.150401170440406e-06 -1.9562814685488955e-06 -84.90747312355464 0.0 1.9878466759146977e-16 0.0
0.0006327961455099285 89.58943176269531 -0.000972858106251806 -6.8995437317535195 0.019604860130592674 -43.41149936098947 -4.7111642631620105 10.37761058507709 0.628510695346367 3.366420943576464 11.56834091525181 0.016035018994375975 -1.2921003393445536e-15 -7.284669573930438e-33 6.460501696722768e-16 6.602678433121392 16.33028944804178 -2.2276929661018077 -5.265147822005332 5.548046123399393 -0.222852289787268 -7.951386703658791e-16 1.987846675914698e-16 -1.7393658414253603e-15 -0.48440332255482826 4.586103423162342 -0.060955129004086325 -5.418823788115376e-07 -2.9255842785338644e-08 -34.58352255570483 -14.401993703447669 12.617067707168735 -139.63093971130243 -140.28331956886808 -51.59679892522494 -47.19784802272808 1.1922793527322753e-06 -3.4404230977756005e-06 77.40357471295346 0.0 0.0 0.0 -109.14127837645576 -9.951510862743051 158.4722406125255 2.7532900044545968e-06 -3.5345127829260757e-06 -83.96027759976235 3.1805546814635168e-15 0.0 0.0
0.0006271088495850563 89.58941650390625 -0.0009737093932926655 -6.955265430679443 0.11182631362983207 -43.14957680659197 -4.387987015587257 10.288093168970384 0.5186499369525982 3.2174891309302316 11.559034751808214 -0.06911112165044726 -8.94531004161614e-16 4.969616689786737e-17 9.168942792656542e-15 6.775203792539813 16.323405538838177 -2.3509275468380877 -5.628906832548264 5.423579858990628 -0.22276075087839867 0.0 0.0 2.4848083448933725e-16 -0.20072383784231618 4.385670034462374 -0.0999465092414045 7.517721046645049e-07 -1.4838470767551347e-07 -34.254474625017124 -14.439259555075107 12.886692854361616 -140.6258554447564 -139.43668854417052 -49.86038115637491 -45.79251216385634 -2.9991037090887157e-06 -2.604162048690231e-06 77.90826262402051 3.1805546814635183e-15 0.0 0.0 -108.38490247877826 -7.892089322112177 159.34756044240436 1.7038981875924288e-06 2.2025441673369407e-06 -83.59908548930697 0.0 0.0 0.0
0.0006024559261277318 89.58940124511719 -0.0009812043281272054 -7.131829804133754 0.0548132755019206 -43.982248364219394 -4.4448938049429545 10.153409827198535 0.46686325532101614 3.3221630706649794 11.882085400837695 -0.1438572622037586 -2.9817700138720455e-16 3.1308585145656493e-15 -5.392034108418618e-15 6.506078700545364 16.557120733152505 -2.395388921860912 -5.886747421825822 5.592635718574069 -0.20736842610591627 3.9756933518293994e-16 3.1805546814635176e-15 -8.348956038841733e-15 -0.029334212010048006 4.601573805724296 -0.14354539178658565 -3.791658386565933e-07 3.4067110656285156e-08 -33.53825865509202 -14.763242044229434 13.112896527978656 -141.2542581639726 -142.7141624610412 -50.13798108140661 -49.06849840665516 -3.01249703302025e-07 1.9208044797488095e-06 79.03105275541891 -3.1805546814635168e-15 0.0 0.0 -109.32348007373088 -9.478832419018698 159.02416668071348 -1.3170459911294077e-06 5.6714140347669954e-06 -82.27897586877793 0.0 -6.361109362927035e-15 0.0
0.0006698737852275372 89.5893783569336 -0.0009665210964158177 -7.324771834268205 -0.08784549506431821 -43.300219831047166 -4.153690673221867 10.45075703372183 0.33564921374167805 3.2563073378904015 11.605451967760526 -0.28598308657755706 9.93923337957349e-17 -4.969616689786745e-17 -4.584471396328272e-15 6.7373545765699925 16.675997673879568 -2.629160099174316 -6.176748420632177 5.646836820927842 -0.25001563297010954 -1.3914926731402886e-15 9.939233379573492e-17 -2.683593012484842e-15 -0.029469243296212897 4.786610261639193 -0.19173451366623645 -3.4555752361630204e-08 1.492369807289986e-07 -32.23694880840233 -14.646199799132745 13.700701395807975 -143.34735974828746 -143.30134107237245 -47.842018421530376 -48.13985720030578 3.1614625558632066e-06 -1.00997451018649e-06 77.39035226309926 0.0 0.0 1.2722218725854067e-14 -109.62599688345334 -7.728136893754745 159.6341570323459 1.6553286840354e-06 1.179933074485214e-07 -81.05309316398632 1.7655625192200634e-31 -6.361109362927033e-15 3.1805546814635164e-15
